<?xml version="1.0" encoding="utf-8"?>
<!-- Svg Vector Icons : http://www.onlinewebfonts.com/icon -->
<!DOCTYPE svg PUBLIC "-//W3C//DTD SVG 1.1//EN" "http://www.w3.org/Graphics/SVG/1.1/DTD/svg11.dtd">
<svg version="1.1" xmlns="http://www.w3.org/2000/svg" xmlns:xlink="http://www.w3.org/1999/xlink" x="0px" y="0px" viewBox="0 0 1000 1000" enable-background="new 0 0 1000 1000" xml:space="preserve" height="40px" width="40px">
<metadata> Svg Vector Icons : http://www.onlinewebfonts.com/icon </metadata>
<g><g transform="translate(0.000000,511.000000) scale(0.100000,-0.100000)"><path d="M1191.9,4986.6C593.1,4869.2,167.6,4247,279.1,3651.2c105.7-584.1,578.2-980.3,1159.3-980.3h179l909.9-909.9l909.9-909.9l660.4,660.4l660.4,660.4L3454.8,3475.1c-851.2,851.2-1353.1,1332.5-1441.1,1379.5C1749.5,4998.4,1476.6,5042.4,1191.9,4986.6z M1585.2,4153.1c176.1-85.1,243.6-302.3,149.7-484.3c-79.3-155.6-293.5-220.1-454.9-137.9c-91,47-205.5,214.3-205.5,305.3c0,108.6,79.3,240.7,184.9,302.3C1373.9,4208.8,1459,4211.8,1585.2,4153.1z"/><path d="M4250.2,1018.5l-830.6-833.6l287.6-273c1147.6-1086,2911.6-2295.2,4499.4-3087.7l551.8-273l14.7-117.4c11.7-64.6,23.5-184.9,29.3-270c11.7-149.7,11.7-149.7-61.6-123.3c-41.1,17.6-319.9,152.6-619.3,302.3C6369.3-2782.4,4716.9-1661.2,3404.9-452l-325.8,302.3l-158.5-161.4l-155.6-158.5L2923.6-634c255.4-261.2,971.5-868.8,1467.5-1241.5C5600.3-2794.2,7015-3642.4,8297.6-4223.5c437.3-196.6,1130-472.5,1373.6-545.9l67.5-20.5l-11.7,713.2c-17.6,821.8-49.9,997.9-261.2,1414.7c-120.3,234.8-184.9,302.3-2254.1,2377.4L5080.8,1849.1L4250.2,1018.5z"  /></g></g>
</svg>